# Blender v2.77 (sub 0) OBJ File: 'roof.blend'
# www.blender.org
mtllib roof.mtl
o Cube.026
v 2.888059 3.490989 -0.730509
v 2.888059 3.490988 4.796678
v -6.157221 3.490988 4.796678
v -6.157221 3.490989 -0.730509
v 2.888059 3.669823 -0.730506
v -6.157221 3.669823 -0.730509
v -6.157221 3.669822 4.796678
v 2.888054 3.669822 4.796680
vt 0.0000 0.0000
vt 1.0000 0.0000
vt 1.0000 1.0000
vt 0.0000 1.0000
vt 0.0000 0.0000
vt 1.0000 0.0000
vt 1.0000 1.0000
vt 0.0000 1.0000
vt 1.0000 0.0000
vt 1.0000 1.0000
vt 0.0000 1.0000
vt 0.0000 0.0000
vt 1.0000 0.0000
vt 0.0000 1.0000
vt 0.0000 0.0000
vt 1.0000 0.0000
vt 1.0000 1.0000
vt 1.0000 0.0000
vt 1.0000 1.0000
vt 0.0000 1.0000
vn 0.0000 -1.0000 -0.0000
vn -0.0000 1.0000 0.0000
vn 1.0000 0.0000 0.0000
vn -0.0000 -0.0000 1.0000
vn -1.0000 0.0000 0.0000
vn 0.0000 0.0000 -1.0000
usemtl Material.007
s 1
f 1/1/1 2/2/1 3/3/1 4/4/1
f 5/5/2 6/6/2 7/7/2 8/8/2
f 1/1/3 5/9/3 8/10/3 2/11/3
f 2/12/4 8/13/4 7/7/4 3/14/4
f 3/15/5 7/16/5 6/17/5 4/4/5
f 5/5/6 1/18/6 4/19/6 6/20/6
o Cube.001_Cube.025
v 5.174199 3.578055 -2.082717
v 5.174199 3.578054 5.581263
v -7.400708 3.578054 5.581263
v -7.400708 3.578055 -2.082717
v 5.174199 3.632714 -2.082714
v -7.400708 3.632714 -2.082717
v -7.400708 3.632713 5.581263
v 5.174193 3.632713 5.581266
vt 0.0000 0.0000
vt 1.0000 0.0000
vt 1.0000 1.0000
vt 0.0000 1.0000
vt 0.0000 0.0000
vt 1.0000 0.0000
vt 1.0000 1.0000
vt 0.0000 1.0000
vt 1.0000 0.0000
vt 1.0000 1.0000
vt 0.0000 1.0000
vt 0.0000 0.0000
vt 1.0000 0.0000
vt 0.0000 1.0000
vt 0.0000 0.0000
vt 1.0000 0.0000
vt 1.0000 1.0000
vt 1.0000 0.0000
vt 1.0000 1.0000
vt 0.0000 1.0000
vn 0.0000 -1.0000 -0.0000
vn -0.0000 1.0000 0.0000
vn 1.0000 0.0001 0.0000
vn -0.0000 -0.0000 1.0000
vn -1.0000 0.0000 0.0000
vn 0.0000 0.0000 -1.0000
usemtl Material.005
s 1
f 9/21/7 10/22/7 11/23/7 12/24/7
f 13/25/8 14/26/8 15/27/8 16/28/8
f 9/21/9 13/29/9 16/30/9 10/31/9
f 10/32/10 16/33/10 15/27/10 11/34/10
f 11/35/11 15/36/11 14/37/11 12/24/11
f 13/25/12 9/38/12 12/39/12 14/40/12
o Cube.024
v 12.421723 3.597285 -6.177970
v 12.421723 3.597283 9.492904
v -13.290736 3.597283 9.492904
v -13.290736 3.597285 -6.177970
v 12.421723 3.709049 -6.177962
v -13.290736 3.709049 -6.177970
v -13.290736 3.709046 9.492904
v 12.421710 3.709046 9.492911
vt 0.0000 0.0000
vt 1.0000 0.0000
vt 1.0000 1.0000
vt 0.0000 1.0000
vt 0.0000 0.0000
vt 1.0000 0.0000
vt 1.0000 1.0000
vt 0.0000 1.0000
vt 1.0000 0.0000
vt 1.0000 1.0000
vt 0.0000 1.0000
vt 0.0000 0.0000
vt 1.0000 0.0000
vt 0.0000 1.0000
vt 0.0000 0.0000
vt 1.0000 0.0000
vt 1.0000 1.0000
vt 1.0000 0.0000
vt 1.0000 1.0000
vt 0.0000 1.0000
vn 0.0000 -1.0000 -0.0000
vn -0.0000 1.0000 0.0000
vn 1.0000 0.0001 0.0000
vn -0.0000 -0.0000 1.0000
vn -1.0000 0.0000 0.0000
vn 0.0000 0.0000 -1.0000
usemtl Material.005
s 1
f 17/41/13 18/42/13 19/43/13 20/44/13
f 21/45/14 22/46/14 23/47/14 24/48/14
f 17/41/15 21/49/15 24/50/15 18/51/15
f 18/52/16 24/53/16 23/47/16 19/54/16
f 19/55/17 23/56/17 22/57/17 20/44/17
f 21/45/18 17/58/18 20/59/18 22/60/18
