# Blender v2.77 (sub 0) OBJ File: 'walls.blend'
# www.blender.org
mtllib walls.mtl
o Cube.020_Cube.010
v -13.794175 5.434927 -17.832096
v -14.461040 -11.712700 -17.829575
v -14.276886 -11.715732 10.253245
v -13.610021 5.431895 10.250724
v -13.239368 5.413342 -17.835739
v -13.055214 5.410318 10.247083
v -13.722079 -11.737309 10.249604
v -13.906234 -11.734285 -17.833202
vt 0.0000 0.0000
vt 1.0000 0.0000
vt 1.0000 1.0000
vt 0.0000 1.0000
vt 0.0000 0.0000
vt 1.0000 0.0000
vt 1.0000 1.0000
vt 0.0000 1.0000
vt 1.0000 0.0000
vt 1.0000 1.0000
vt 0.0000 1.0000
vt 0.0000 0.0000
vt 1.0000 0.0000
vt 0.0000 1.0000
vt 0.0000 0.0000
vt 1.0000 0.0000
vt 1.0000 1.0000
vt 1.0000 0.0000
vt 1.0000 1.0000
vt 0.0000 1.0000
vn -0.9992 0.0389 0.0066
vn 0.9992 -0.0389 -0.0066
vn -0.0065 0.0001 -1.0000
vn -0.0389 -0.9992 0.0001
vn 0.0066 -0.0001 1.0000
vn 0.0389 0.9992 -0.0001
usemtl Material.007
s 1
f 1/1/1 2/2/1 3/3/1 4/4/1
f 5/5/2 6/6/2 7/7/2 8/8/2
f 1/1/3 5/9/3 8/10/3 2/11/3
f 2/12/4 8/13/4 7/7/4 3/14/4
f 3/15/5 7/16/5 6/17/5 4/4/5
f 5/5/6 1/18/6 4/19/6 6/20/6
o Cube.019_Cube.008
v 12.368573 5.410552 -16.460144
v 11.984138 -11.745731 -16.458282
v 12.120221 -11.745731 11.624814
v 12.504655 5.410552 11.622951
v 12.923665 5.398105 -16.462833
v 13.059748 5.398114 11.620261
v 12.675313 -11.758169 11.622125
v 12.539231 -11.758177 -16.460957
vt 0.0000 0.0000
vt 1.0000 0.0000
vt 1.0000 1.0000
vt 0.0000 1.0000
vt 0.0000 0.0000
vt 1.0000 0.0000
vt 1.0000 1.0000
vt 0.0000 1.0000
vt 1.0000 0.0000
vt 1.0000 1.0000
vt 0.0000 1.0000
vt 0.0000 0.0000
vt 1.0000 0.0000
vt 0.0000 1.0000
vt 0.0000 0.0000
vt 1.0000 0.0000
vt 1.0000 1.0000
vt 1.0000 0.0000
vt 1.0000 1.0000
vt 0.0000 1.0000
vn -0.9997 0.0224 0.0048
vn 0.9997 -0.0224 -0.0048
vn -0.0048 -0.0000 -1.0000
vn -0.0224 -0.9997 0.0001
vn 0.0048 0.0000 1.0000
vn 0.0224 0.9997 -0.0001
usemtl Material.007
s 1
f 9/21/7 10/22/7 11/23/7 12/24/7
f 13/25/8 14/26/8 15/27/8 16/28/8
f 9/21/9 13/29/9 16/30/9 10/31/9
f 10/32/10 16/33/10 15/27/10 11/34/10
f 11/35/11 15/36/11 14/37/11 12/24/11
f 13/25/12 9/38/12 12/39/12 14/40/12
o Cube.001
v 15.208559 5.379933 -6.567985
v 15.208559 -11.780133 -6.701979
v -12.874866 -11.780133 -6.701979
v -12.874866 5.379933 -6.567985
v 15.208559 5.375589 -6.012764
v -12.874866 5.375598 -6.012764
v -12.874866 -11.784469 -6.146758
v 15.208545 -11.784477 -6.146758
vt 0.0000 0.0000
vt 1.0000 0.0000
vt 1.0000 1.0000
vt 0.0000 1.0000
vt 0.0000 0.0000
vt 1.0000 0.0000
vt 1.0000 1.0000
vt 0.0000 1.0000
vt 1.0000 0.0000
vt 1.0000 1.0000
vt 0.0000 1.0000
vt 0.0000 0.0000
vt 1.0000 0.0000
vt 0.0000 1.0000
vt 0.0000 0.0000
vt 1.0000 0.0000
vt 1.0000 1.0000
vt 1.0000 0.0000
vt 1.0000 1.0000
vt 0.0000 1.0000
vn 0.0000 0.0078 -1.0000
vn 0.0000 -0.0078 1.0000
vn 1.0000 -0.0000 0.0000
vn -0.0000 -1.0000 -0.0078
vn -1.0000 0.0000 0.0000
vn 0.0000 1.0000 0.0078
usemtl Material.007
s 1
f 17/41/13 18/42/13 19/43/13 20/44/13
f 21/45/14 22/46/14 23/47/14 24/48/14
f 17/41/15 21/49/15 24/50/15 18/51/15
f 18/52/16 24/53/16 23/47/16 19/54/16
f 19/55/17 23/56/17 22/57/17 20/44/17
f 21/45/18 17/58/18 20/59/18 22/60/18
o Cube.026
v 12.407131 5.458607 9.291758
v 12.407131 -11.692856 9.851344
v -15.676294 -11.692856 9.851344
v -15.676294 5.458607 9.291758
v 12.407131 5.476705 9.846700
v -15.676294 5.476713 9.846700
v -15.676294 -11.674749 10.406286
v 12.407118 -11.674758 10.406287
vt 0.0000 0.0000
vt 1.0000 0.0000
vt 1.0000 1.0000
vt 0.0000 1.0000
vt 0.0000 0.0000
vt 1.0000 0.0000
vt 1.0000 1.0000
vt 0.0000 1.0000
vt 1.0000 0.0000
vt 1.0000 1.0000
vt 0.0000 1.0000
vt 0.0000 0.0000
vt 1.0000 0.0000
vt 0.0000 1.0000
vt 0.0000 0.0000
vt 1.0000 0.0000
vt 1.0000 1.0000
vt 1.0000 0.0000
vt 1.0000 1.0000
vt 0.0000 1.0000
vn 0.0000 -0.0326 -0.9995
vn -0.0000 0.0326 0.9995
vn 1.0000 0.0000 0.0000
vn -0.0000 -0.9995 0.0326
vn -1.0000 0.0000 0.0000
vn 0.0000 0.9995 -0.0326
usemtl Material.007
s 1
f 25/61/19 26/62/19 27/63/19 28/64/19
f 29/65/20 30/66/20 31/67/20 32/68/20
f 25/61/21 29/69/21 32/70/21 26/71/21
f 26/72/22 32/73/22 31/67/22 27/74/22
f 27/75/23 31/76/23 30/77/23 28/64/23
f 29/65/24 25/78/24 28/79/24 30/80/24
o Cube.006
v 7.358861 -1.012668 -2.459637
v 7.358861 -1.012668 -3.471896
v 6.289627 -1.012668 -3.471896
v 6.289627 -1.012668 -2.459637
v 7.358861 0.807946 -2.459637
v 6.289627 0.807946 -2.459637
v 6.289627 0.807946 -3.471896
v 7.358860 0.807946 -3.471896
vt 0.0000 0.0000
vt 1.0000 0.0000
vt 1.0000 1.0000
vt 0.0000 1.0000
vt 0.0000 0.0000
vt 1.0000 0.0000
vt 1.0000 1.0000
vt 0.0000 1.0000
vt 1.0000 0.0000
vt 1.0000 1.0000
vt 0.0000 1.0000
vt 0.0000 0.0000
vt 1.0000 0.0000
vt 0.0000 1.0000
vt 0.0000 0.0000
vt 1.0000 0.0000
vt 1.0000 1.0000
vt 1.0000 0.0000
vt 1.0000 1.0000
vt 0.0000 1.0000
vn 0.0000 1.0000 0.0000
vn -0.0000 -1.0000 -0.0000
vn -1.0000 0.0000 0.0000
vn 0.0000 0.0000 1.0000
vn 1.0000 0.0000 0.0000
vn 0.0000 0.0000 -1.0000
usemtl Material.001
s 1
f 33/81/25 34/82/25 35/83/25 36/84/25
f 37/85/26 38/86/26 39/87/26 40/88/26
f 33/81/27 37/89/27 40/90/27 34/91/27
f 34/92/28 40/93/28 39/87/28 35/94/28
f 35/95/29 39/96/29 38/97/29 36/84/29
f 37/85/30 33/98/30 36/99/30 38/100/30
o Cube.005
v -2.809953 -0.986153 6.505394
v -2.809953 -0.986153 5.691317
v -3.669851 -0.986153 5.691317
v -3.669851 -0.986153 6.505394
v -2.809953 0.478019 6.505394
v -3.669851 0.478019 6.505394
v -3.669851 0.478019 5.691317
v -2.809954 0.478019 5.691317
vt 0.0000 0.0000
vt 1.0000 0.0000
vt 1.0000 1.0000
vt 0.0000 1.0000
vt 0.0000 0.0000
vt 1.0000 0.0000
vt 1.0000 1.0000
vt 0.0000 1.0000
vt 1.0000 0.0000
vt 1.0000 1.0000
vt 0.0000 1.0000
vt 0.0000 0.0000
vt 1.0000 0.0000
vt 0.0000 1.0000
vt 0.0000 0.0000
vt 1.0000 0.0000
vt 1.0000 1.0000
vt 1.0000 0.0000
vt 1.0000 1.0000
vt 0.0000 1.0000
vn 0.0000 1.0000 0.0000
vn -0.0000 -1.0000 -0.0000
vn -1.0000 -0.0000 0.0000
vn 0.0000 0.0000 1.0000
vn 1.0000 0.0000 0.0000
vn -0.0000 -0.0000 -1.0000
usemtl Material.001
s 1
f 41/101/31 42/102/31 43/103/31 44/104/31
f 45/105/32 46/106/32 47/107/32 48/108/32
f 41/101/33 45/109/33 48/110/33 42/111/33
f 42/112/34 48/113/34 47/107/34 43/114/34
f 43/115/35 47/116/35 46/117/35 44/104/35
f 45/105/36 41/118/36 44/119/36 46/120/36
o Cube.004
v -12.687765 4.360235 15.854736
v -12.687765 4.360236 9.792659
v -8.187750 4.360236 9.792659
v -8.187750 4.360235 15.854736
v -12.687765 -0.977777 15.854733
v -8.187750 -0.977777 15.854735
v -8.187750 -0.977776 9.792658
v -12.687762 -0.977776 9.792655
vt 0.0000 0.0000
vt 1.0000 0.0000
vt 1.0000 1.0000
vt 0.0000 1.0000
vt 0.0000 0.0000
vt 1.0000 0.0000
vt 1.0000 1.0000
vt 0.0000 1.0000
vt 1.0000 0.0000
vt 1.0000 1.0000
vt 0.0000 1.0000
vt 0.0000 0.0000
vt 1.0000 0.0000
vt 0.0000 1.0000
vt 0.0000 0.0000
vt 1.0000 0.0000
vt 1.0000 1.0000
vt 1.0000 0.0000
vt 1.0000 1.0000
vt 0.0000 1.0000
vn 0.0000 -1.0000 -0.0000
vn -0.0000 1.0000 0.0000
vn 1.0000 0.0000 0.0000
vn -0.0000 -0.0000 1.0000
vn -1.0000 0.0000 0.0000
vn 0.0000 0.0000 -1.0000
usemtl Material.001
s 1
f 49/121/37 50/122/37 51/123/37 52/124/37
f 53/125/38 54/126/38 55/127/38 56/128/38
f 49/121/39 53/129/39 56/130/39 50/131/39
f 50/132/40 56/133/40 55/127/40 51/134/40
f 51/135/41 55/136/41 54/137/41 52/124/41
f 53/125/42 49/138/42 52/139/42 54/140/42
